<?xml version="1.0" encoding="utf-8"?>
<!-- Generator: Adobe Illustrator 27.5.0, SVG Export Plug-In . SVG Version: 6.00 Build 0)  -->
<svg version="1.1" xmlns="http://www.w3.org/2000/svg" xmlns:xlink="http://www.w3.org/1999/xlink" x="0px" y="0px"
	 viewBox="0 0 500 500" style="enable-background:new 0 0 500 500;" xml:space="preserve">
<g id="Background_Complete">
	<g>
		<rect y="382.398" style="fill:#EBEBEB;" width="500" height="0.25"/>
		<rect x="416.779" y="398.494" style="fill:#EBEBEB;" width="33.122" height="0.25"/>
		<rect x="322.527" y="401.208" style="fill:#EBEBEB;" width="8.693" height="0.25"/>
		<rect x="396.586" y="389.208" style="fill:#EBEBEB;" width="19.192" height="0.25"/>
		<rect x="52.459" y="390.888" style="fill:#EBEBEB;" width="43.193" height="0.25"/>
		<rect x="104.556" y="390.888" style="fill:#EBEBEB;" width="6.333" height="0.25"/>
		<rect x="131.471" y="395.111" style="fill:#EBEBEB;" width="93.676" height="0.25"/>
		<path style="fill:#EBEBEB;" d="M237.014,337.8H43.915c-3.147,0-5.708-2.561-5.708-5.708V60.66c0-3.147,2.561-5.708,5.708-5.708
			h193.099c3.146,0,5.707,2.561,5.707,5.708v271.432C242.721,335.239,240.16,337.8,237.014,337.8z M43.915,55.203
			c-3.01,0-5.458,2.448-5.458,5.458v271.432c0,3.01,2.448,5.458,5.458,5.458h193.099c3.009,0,5.457-2.448,5.457-5.458V60.66
			c0-3.009-2.448-5.458-5.457-5.458H43.915z"/>
		<path style="fill:#EBEBEB;" d="M453.31,337.8H260.212c-3.147,0-5.707-2.561-5.707-5.708V60.66c0-3.147,2.561-5.708,5.707-5.708
			H453.31c3.148,0,5.708,2.561,5.708,5.708v271.432C459.019,335.239,456.458,337.8,453.31,337.8z M260.212,55.203
			c-3.009,0-5.457,2.448-5.457,5.458v271.432c0,3.01,2.448,5.458,5.457,5.458H453.31c3.01,0,5.458-2.448,5.458-5.458V60.66
			c0-3.009-2.448-5.458-5.458-5.458H260.212z"/>
	</g>
	<g>
		<g>
			<rect x="228.154" y="79.777" style="fill:#E6E6E6;" width="194.79" height="171.096"/>
			<rect x="230.527" y="79.777" style="fill:#F0F0F0;" width="197.496" height="171.096"/>
			<rect x="228.154" y="250.874" style="fill:#E6E6E6;" width="194.79" height="4.719"/>
			<rect x="238.989" y="250.874" style="fill:#F0F0F0;" width="197.496" height="4.719"/>
			
				<rect x="250.838" y="73.688" transform="matrix(-1.836970e-16 1 -1 -1.836970e-16 494.6011 -163.9496)" style="fill:#FAFAFA;" width="156.875" height="183.275"/>
			<polygon style="fill:#FFFFFF;" points="262.165,243.763 282.385,86.888 317.368,86.888 297.148,243.763 			"/>
			<polygon style="fill:#FFFFFF;" points="304.664,243.763 324.884,86.888 338.522,86.888 318.302,243.763 			"/>
			
				<rect x="342.024" y="164.874" transform="matrix(-1.836970e-16 1 -1 -1.836970e-16 585.787 -255.1355)" style="fill:#E6E6E6;" width="156.875" height="0.903"/>
			<polygon style="opacity:0.5;fill:#E0E0E0;" points="429.705,101.838 234.915,101.838 234.26,89.652 429.051,89.652 			"/>
			<polygon style="opacity:0.5;fill:#E0E0E0;" points="429.705,121.871 234.915,121.871 234.26,109.685 429.051,109.685 			"/>
			<polygon style="opacity:0.5;fill:#E0E0E0;" points="429.705,141.903 234.915,141.903 234.26,129.717 429.051,129.717 			"/>
			<polygon style="opacity:0.5;fill:#E0E0E0;" points="429.705,161.935 234.915,161.935 234.26,149.749 429.051,149.749 			"/>
			<polygon style="opacity:0.5;fill:#E0E0E0;" points="429.705,181.968 234.915,181.968 234.26,169.781 429.051,169.781 			"/>
			<polygon style="opacity:0.5;fill:#E0E0E0;" points="429.705,202 234.915,202 234.26,189.814 429.051,189.814 			"/>
		</g>
		<g>
			<g>
				<g>
					<rect x="58.647" y="115.716" style="fill:#E0E0E0;" width="60.847" height="120.312"/>
					<rect x="61.061" y="115.716" style="fill:#F5F5F5;" width="62.052" height="120.312"/>
					
						<rect x="38.893" y="150.044" transform="matrix(6.123234e-17 -1 1 6.123234e-17 -83.7853 267.9583)" style="fill:#FFFFFF;" width="106.388" height="51.655"/>
				</g>
			</g>
			<g>
				<g>
					<rect x="139.887" y="97.355" style="fill:#E0E0E0;" width="60.847" height="120.312"/>
					<rect x="142.301" y="97.355" style="fill:#F5F5F5;" width="62.052" height="120.312"/>
					
						<rect x="120.133" y="131.683" transform="matrix(6.123234e-17 -1 1 6.123234e-17 15.8156 330.8375)" style="fill:#FFFFFF;" width="106.388" height="51.655"/>
				</g>
			</g>
		</g>
		<g>
			<g>
				<rect x="164.317" y="271.522" style="fill:#E6E6E6;" width="25.614" height="110.876"/>
				<polygon style="fill:#F0F0F0;" points="185.066,382.398 189.931,382.398 189.931,371.107 179.965,371.107 				"/>
				<rect x="68.586" y="271.522" style="fill:#E6E6E6;" width="25.614" height="110.876"/>
				<rect x="89.954" y="271.522" style="fill:#F0F0F0;" width="99.977" height="103.947"/>
				
					<rect x="122.407" y="297.605" transform="matrix(6.123234e-17 -1 1 6.123234e-17 -156.0296 483.7617)" style="fill:#E6E6E6;" width="82.918" height="44.582"/>
				
					<rect x="74.56" y="297.605" transform="matrix(6.123234e-17 -1 1 6.123234e-17 -203.8768 435.9146)" style="fill:#E6E6E6;" width="82.918" height="44.582"/>
				<path style="fill:#F0F0F0;" d="M120.429,281.595h-8.82c-3.831,0-7.494-1.285-10.129-3.554l0,0h29.077l0,0
					C127.923,280.31,124.26,281.595,120.429,281.595z"/>
				<path style="fill:#F0F0F0;" d="M168.727,281.595h-8.82c-3.831,0-7.494-1.285-10.129-3.554l0,0h29.077l0,0
					C176.22,280.31,172.558,281.595,168.727,281.595z"/>
				<polygon style="fill:#F0F0F0;" points="94.819,382.398 89.954,382.398 89.954,371.107 99.92,371.107 				"/>
			</g>
			<path style="fill:#E6E6E6;" d="M113.424,260.938c0,0,0.76,10.584,29.908,10.584s29.908-10.584,29.908-10.584H113.424z"/>
		</g>
		<g>
			
				<rect x="228.328" y="290.047" transform="matrix(-1 -1.224647e-16 1.224647e-16 -1 675.4741 598.4181)" style="fill:#EBEBEB;" width="218.818" height="18.324"/>
			
				<rect x="228.328" y="290.047" transform="matrix(-1 -1.224647e-16 1.224647e-16 -1 518.7673 598.4181)" style="fill:#E0E0E0;" width="62.112" height="18.324"/>
			
				<rect x="434.049" y="308.371" transform="matrix(-1 -1.224647e-16 1.224647e-16 -1 881.1955 690.7697)" style="fill:#EBEBEB;" width="13.097" height="74.027"/>
			<polygon style="fill:#E0E0E0;" points="434.049,313.502 447.146,310.936 447.146,308.371 434.049,308.371 			"/>
			
				<rect x="228.328" y="308.371" transform="matrix(-1 -1.224647e-16 1.224647e-16 -1 469.7527 690.7697)" style="fill:#E0E0E0;" width="13.097" height="74.027"/>
			
				<rect x="277.342" y="308.371" transform="matrix(-1 -1.224647e-16 1.224647e-16 -1 567.782 690.7697)" style="fill:#EBEBEB;" width="13.097" height="74.027"/>
			<polygon style="fill:#E0E0E0;" points="277.342,313.502 290.44,310.936 290.44,308.371 277.342,308.371 			"/>
			
				<rect x="393.042" y="308.371" transform="matrix(-1 -1.224647e-16 1.224647e-16 -1 799.181 690.7697)" style="fill:#E0E0E0;" width="13.097" height="74.027"/>
		</g>
	</g>
</g>
<g id="Background_Simple" style="display:none;">
	<g style="display:inline;">
		<path style="fill:#407BFF;" d="M407.542,95.871c-2.578-2.77-5.332-5.401-8.249-7.874c-25.108-21.288-65.103-33.418-99.011-22.867
			c-20.196,6.285-33.491,23.762-50.712,35.407c-21.663,14.65-50.03,19.653-75.522,25.178c-34.428,7.462-66.32,17.199-86.495,45.451
			c-16.775,23.49-21.742,54.378-6.941,78.958c14.079,23.382,36.308,43.352,60.368,58.191c20.705,12.77,42.246,16.77,64.812,3.38
			c14.738-8.746,25.721-21.761,36.987-34.1c12.738-13.952,29.056-31.281,49.202-35.541c19.223-4.065,39.856,3.252,59.281,2.096
			c32.087-1.911,61.277-23.575,73.437-50.984C439.14,160.612,431.704,121.825,407.542,95.871z"/>
		<path style="opacity:0.9;fill:#FFFFFF;" d="M407.542,95.871c-2.578-2.77-5.332-5.401-8.249-7.874
			c-25.108-21.288-65.103-33.418-99.011-22.867c-20.196,6.285-33.491,23.762-50.712,35.407
			c-21.663,14.65-50.03,19.653-75.522,25.178c-34.428,7.462-66.32,17.199-86.495,45.451c-16.775,23.49-21.742,54.378-6.941,78.958
			c14.079,23.382,36.308,43.352,60.368,58.191c20.705,12.77,42.246,16.77,64.812,3.38c14.738-8.746,25.721-21.761,36.987-34.1
			c12.738-13.952,29.056-31.281,49.202-35.541c19.223-4.065,39.856,3.252,59.281,2.096c32.087-1.911,61.277-23.575,73.437-50.984
			C439.14,160.612,431.704,121.825,407.542,95.871z"/>
	</g>
</g>
<g id="Shadow_1_">
	<ellipse id="_x3C_Path_x3E__274_" style="fill:#F5F5F5;" cx="250" cy="416.238" rx="193.889" ry="11.323"/>
</g>
<g id="Smartphone">
	<g>
		<g>
			<g>
				<path style="fill:#407BFF;" d="M232.508,129.333h-119.29c-8.089,0-14.262,6.618-13.718,14.707L116.6,398.436
					c0.544,8.089,7.607,14.707,15.696,14.707h119.29c8.089,0,14.262-6.618,13.718-14.707L248.204,144.04
					C247.66,135.951,240.597,129.333,232.508,129.333z"/>
				<path style="opacity:0.3;fill:#FFFFFF;" d="M232.508,129.333h-119.29c-8.089,0-14.262,6.618-13.718,14.707L116.6,398.436
					c0.544,8.089,7.607,14.707,15.696,14.707h119.29c8.089,0,14.262-6.618,13.718-14.707L248.204,144.04
					C247.66,135.951,240.597,129.333,232.508,129.333z"/>
			</g>
			
				<rect x="99.473" y="183.835" transform="matrix(0.9977 -0.0671 0.0671 0.9977 -12.9088 7.1448)" style="fill:#407BFF;" width="1" height="24.051"/>
			
				<rect x="101.491" y="220.483" transform="matrix(0.9977 -0.0671 0.0671 0.9977 -14.9211 7.3499)" style="fill:#407BFF;" width="1" height="10.78"/>
			<path style="fill:#407BFF;" d="M125.26,400.985c0.31,4.614-6.161,6-7.76,1.661c-0.492-1.334-0.803-2.746-0.902-4.205
				L99.497,144.04c-0.1-1.483,0.026-2.915,0.347-4.267c1.065-4.474,7.595-3.939,7.903,0.65L125.26,400.985z"/>
			<path style="fill:#FFFFFF;" d="M251.586,408.327H140.76c-5.531,0-10.519-4.678-10.891-10.214l-17.101-254.396
				c-0.173-2.573,0.66-4.984,2.346-6.788c1.678-1.794,4.011-2.781,6.568-2.781h110.827c5.531,0,10.518,4.678,10.89,10.215
				L260.5,398.759c0.173,2.574-0.66,4.984-2.345,6.787C256.477,407.34,254.145,408.327,251.586,408.327z M121.682,135.219
				c-2.258,0-4.313,0.867-5.786,2.441c-1.481,1.585-2.213,3.711-2.06,5.985l17.101,254.395c0.336,4.996,4.835,9.216,9.823,9.216
				h110.826c2.259,0,4.314-0.867,5.787-2.441c1.48-1.584,2.212-3.71,2.059-5.984l-17.101-254.396
				c-0.336-4.996-4.834-9.217-9.823-9.217H121.682z"/>
		</g>
		<g>
			<g style="opacity:0.5;">
				
					<ellipse transform="matrix(0.6871 -0.7265 0.7265 0.6871 -97.7519 203.8449)" style="fill:#407BFF;" cx="187.811" cy="215.423" rx="44.538" ry="49.789"/>
				
					<ellipse transform="matrix(0.6871 -0.7265 0.7265 0.6871 -97.752 203.8456)" style="fill:#FFFFFF;" cx="187.811" cy="215.424" rx="35.63" ry="39.831"/>
				
					<ellipse transform="matrix(0.6872 -0.7265 0.7265 0.6872 -97.7517 203.8403)" style="fill:#407BFF;" cx="187.811" cy="215.424" rx="26.723" ry="29.873"/>
				
					<ellipse transform="matrix(0.6871 -0.7265 0.7265 0.6871 -97.752 203.8465)" style="fill:#FFFFFF;" cx="187.811" cy="215.424" rx="17.815" ry="19.915"/>
				<path style="fill:#407BFF;" d="M197.229,215.423c0.58,5.202-3.166,9.418-8.368,9.418c-5.201,0-9.888-4.217-10.468-9.418
					c-0.58-5.201,3.166-9.418,8.368-9.418C191.962,206.005,196.649,210.222,197.229,215.423z"/>
			</g>
			<path style="fill:#FFFFFF;" d="M196.887,279.509c-0.177,0-0.348,0.018-0.523,0.027c-2.748-5.246-8.282-8.895-14.423-8.895
				c-1.588,0-3.103,0.245-4.511,0.697c-2.873-5.214-8.456-8.811-14.636-8.811c-8.135,0-14.387,6.234-14.555,14.185
				c-6.297,0.436-10.94,5.692-10.504,12.129c0.456,6.722,6.275,12.171,12.997,12.171h47.614c5.938,0,10.425-4.814,10.022-10.751
				C207.965,284.323,202.825,279.509,196.887,279.509z"/>
			<path style="fill:#FFFFFF;" d="M227.22,163.163c-0.138,0-0.272,0.014-0.408,0.021c-2.142-4.089-6.455-6.933-11.243-6.933
				c-1.238,0-2.419,0.191-3.516,0.543c-2.24-4.064-6.592-6.868-11.409-6.868c-6.341,0-11.215,4.859-11.346,11.057
				c-4.908,0.34-8.528,4.437-8.187,9.454c0.355,5.24,4.891,9.488,10.131,9.488h37.115c4.629,0,8.126-3.752,7.812-8.381
				C235.855,166.915,231.848,163.163,227.22,163.163z"/>
			<g>
				<path style="opacity:0.3;fill:#FFFFFF;" d="M241.997,318.86h-68.556c-2.126,0-3.732,1.723-3.588,3.849l2.774,40.893
					c0.144,2.126,1.984,3.849,4.11,3.849h9.201l0.767,11.306l10.539-11.306h48.049c2.126,0,3.732-1.723,3.588-3.849l-2.774-40.893
					C245.963,320.583,244.123,318.86,241.997,318.86z"/>
				<polygon style="fill:#FFFFFF;" points="241.475,345.741 177.61,345.741 177.26,340.569 241.125,340.569 				"/>
				<polygon style="fill:#FFFFFF;" points="221.998,356.48 178.339,356.48 177.988,351.309 221.647,351.309 				"/>
				<polygon style="fill:#FFFFFF;" points="240.747,335.001 176.882,335.001 176.531,329.83 240.396,329.83 				"/>
			</g>
		</g>
	</g>
</g>
<g id="Character_1_">
	<g>
		<g>
			<path style="fill:#407BFF;" d="M295.643,146.016l2.629,1.893c0.907,0.642,1.828,1.274,2.756,1.889
				c1.851,1.235,3.707,2.465,5.595,3.58c1.888,1.102,3.779,2.183,5.656,3.122c1.856,0.918,3.793,1.738,5.462,2.266
				c-0.448-0.102-0.904-0.111-1.27-0.052c-0.338,0.037-0.603,0.146-0.732,0.204c-0.288,0.15-0.196,0.159-0.046,0.074
				c0.339-0.186,0.962-0.757,1.546-1.423c1.207-1.369,2.415-3.156,3.561-4.997c1.172-1.842,2.288-3.795,3.356-5.788
				c1.086-1.969,2.145-4.056,3.136-6.011l0.068-0.134c1.122-2.216,3.828-3.102,6.044-1.979c1.956,0.991,2.874,3.217,2.291,5.249
				c-1.376,4.807-3.024,9.305-5.146,13.927c-1.099,2.296-2.299,4.574-3.954,6.948c-0.86,1.19-1.792,2.41-3.286,3.707
				c-0.77,0.644-1.664,1.324-3.052,1.9c-0.675,0.284-1.516,0.526-2.437,0.646c-0.953,0.111-2.002,0.075-3.025-0.161
				c-2.892-0.658-5.362-1.533-7.814-2.51c-2.429-0.971-4.708-2.089-6.937-3.269c-2.225-1.18-4.38-2.42-6.49-3.731
				c-1.053-0.658-2.091-1.332-3.125-2.024c-1.054-0.699-2.017-1.369-3.132-2.192c-3.09-2.282-3.744-6.637-1.462-9.727
				c2.264-3.065,6.569-3.734,9.654-1.515L295.643,146.016z"/>
			<path style="opacity:0.2;" d="M295.643,146.016l2.629,1.893c0.907,0.642,1.828,1.274,2.756,1.889
				c1.851,1.235,3.707,2.465,5.595,3.58c1.888,1.102,3.779,2.183,5.656,3.122c1.856,0.918,3.793,1.738,5.462,2.266
				c-0.448-0.102-0.904-0.111-1.27-0.052c-0.338,0.037-0.603,0.146-0.732,0.204c-0.288,0.15-0.196,0.159-0.046,0.074
				c0.339-0.186,0.962-0.757,1.546-1.423c1.207-1.369,2.415-3.156,3.561-4.997c1.172-1.842,2.288-3.795,3.356-5.788
				c1.086-1.969,2.145-4.056,3.136-6.011l0.068-0.134c1.122-2.216,3.828-3.102,6.044-1.979c1.956,0.991,2.874,3.217,2.291,5.249
				c-1.376,4.807-3.024,9.305-5.146,13.927c-1.099,2.296-2.299,4.574-3.954,6.948c-0.86,1.19-1.792,2.41-3.286,3.707
				c-0.77,0.644-1.664,1.324-3.052,1.9c-0.675,0.284-1.516,0.526-2.437,0.646c-0.953,0.111-2.002,0.075-3.025-0.161
				c-2.892-0.658-5.362-1.533-7.814-2.51c-2.429-0.971-4.708-2.089-6.937-3.269c-2.225-1.18-4.38-2.42-6.49-3.731
				c-1.053-0.658-2.091-1.332-3.125-2.024c-1.054-0.699-2.017-1.369-3.132-2.192c-3.09-2.282-3.744-6.637-1.462-9.727
				c2.264-3.065,6.569-3.734,9.654-1.515L295.643,146.016z"/>
		</g>
		<path style="fill:#FFB573;" d="M329.815,138.893l2.706-4.587l5.203,5.617c0,0-1.022,2.529-3.782,3.55
			c-0.752,0.278-1.597,0.13-2.271-0.305l-0.995-0.641C329.46,141.743,329.079,140.139,329.815,138.893z"/>
		<path style="fill:#FFB573;" d="M339.892,131.581l1.146,0.709c1.549,0.96,1.738,3.141,0.376,4.352l-3.689,3.28l-5.203-5.617
			l4.527-2.739C337.923,131.037,339.022,131.042,339.892,131.581z"/>
		<g>
			<polygon style="fill:#FFB573;" points="232.023,408.117 239.935,408.35 242.919,390.015 235.007,389.782 			"/>
			<path style="fill:#263238;" d="M241.188,406.119l-8.843-1.117c-0.322-0.041-0.593,0.152-0.652,0.464l-1.312,6.942
				c-0.136,0.72,0.458,1.493,1.201,1.574c3.085,0.336,4.579,0.34,8.468,0.831c2.392,0.302,8.622,1.805,11.927,1.398
				c3.233-0.398,2.809-3.663,1.372-3.787c-6.444-0.555-8.864-3.625-10.866-5.651C242.121,406.409,241.659,406.179,241.188,406.119z"
				/>
			<g>
				<polygon style="opacity:0.2;" points="235.004,389.787 242.919,390.02 241.378,399.471 233.462,399.237 				"/>
			</g>
			<path style="fill:#263238;" d="M278.29,213.959c0,0-6.914,65.586-11.505,87.869c-5.028,24.402-21.174,95.778-21.174,95.778
				l-14.492-1.07c0,0,7.939-73.84,14.441-97.74c0-24.818,6.031-94.379,6.031-94.379L278.29,213.959z"/>
			<path style="opacity:0.3;" d="M255.199,236.17c-0.128-5.126-2.911-6.785-5.65-6.721c-0.963,12.339-2.065,27.472-2.879,41.116
				C251.528,262.689,255.563,250.424,255.199,236.17z"/>
			<polygon style="fill:#FFFFFF;" points="230.692,396.677 246.211,397.834 247.994,391.983 230.123,391.798 			"/>
		</g>
		<g>
			<polygon style="fill:#FFB573;" points="151.71,346.653 156.704,352.818 171.629,342.053 166.634,335.888 			"/>
			<path style="fill:#263238;" d="M157.783,352.828l-4.44-7.729c-0.161-0.281-0.479-0.381-0.763-0.24l-6.33,3.138
				c-0.657,0.326-0.915,1.266-0.532,1.907c1.592,2.664,2.489,3.859,4.441,7.258c1.201,2.091,4.36,8.094,6.019,10.981
				c1.622,2.824,4.467,1.165,4.022-0.207c-1.993-6.153-2.57-10.861-2.16-13.679C158.115,353.748,158.02,353.24,157.783,352.828z"/>
			<g>
				<polygon style="opacity:0.2;" points="166.629,335.89 171.626,342.057 163.93,347.603 158.934,341.436 				"/>
			</g>
			<path style="fill:#263238;" d="M263.835,208.363c0,0-19.486,55.777-28.342,76.733c-9.698,22.949-67.645,63.712-67.645,63.712
				l-9.147-11.291c0,0,39.38-39.462,53.962-58.185c8.101-25.49,25.387-80.184,25.387-80.184L263.835,208.363z"/>
			<polygon style="fill:#FFFFFF;" points="158.333,337.062 168.217,349.263 173.05,346.469 161.471,333.545 			"/>
		</g>
		<path style="fill:#F0F0F0;" d="M278.206,214.375l-40.156-15.227c0.993-3.668,6.251-14.451,10.92-29.454
			c3.134-10.074,6.125-21.813,7.677-34.01c0.001-0.009,0.002-0.017,0.003-0.026c0.174-1.421,1.499-2.403,2.908-2.153
			c0.755,0.134,1.643,0.3,2.622,0.497c2.535,0.508,5.688,1.226,8.701,2.143c5.185,1.581,12.63,4.059,16.98,6.068
			c2.524,1.175,3.517,1.705,5.413,2.826c1.152,0.694,2.268,1.502,2.865,2.126c0.577,0.602,1.107,1.228,1.11,2.061
			C297.271,154.997,291.516,177.24,278.206,214.375z"/>
		<path style="fill:#FFB573;" d="M287.077,141.865c-4.52-2.933-4.296-6.297-2.764-9.533c0.362-0.791,0.806-1.588,1.286-2.359
			l-4.351-7.351l-3.198-5.394c-0.696,5.922-2.837,16.397-7.839,18.723c0,0,3.742,5.869,11.126,8.197
			C288.72,146.475,287.077,141.865,287.077,141.865z"/>
		<polygon style="fill:#E0E0E0;" points="281.06,144.059 280.985,142.176 275.993,143.162 		"/>
		<polygon style="fill:#E0E0E0;" points="281.06,144.059 281.985,142.533 285.221,146.46 		"/>
		<path style="fill:#FFFFFF;" d="M270.885,135.078c2.936,2.748,6.333,5.087,10.1,7.098c-1.968,1.23-3.9,4.477-4.613,7.153
			c-1.62-1.127-8.1-11.788-9.012-14.718L270.885,135.078z"/>
		<path style="fill:#FFFFFF;" d="M286.143,140.729c-1.311,0.978-2.675,1.689-4.159,1.805c1.066,1.567,1.968,5.636,1.968,8
			c1.867-1.222,4.756-5.48,5.217-7.415L286.143,140.729z"/>
		<path style="opacity:0.3;" d="M286.304,140.589c0,0,4.361,2.103,8.223,4.483c3.242,1.998,4.805,5.928,3.768,9.592
			c-4.771,16.853-11.214,33.231-13.88,42.341c-2.839,9.701-6.77,21.89-6.77,21.89l-6.817,1.601
			C270.828,220.495,287.899,155.206,286.304,140.589z"/>
		<g>
			<path style="opacity:0.3;" d="M270.794,134.32c0,0-5.87-0.766-10.981-1.002c-3.708-0.171-7.034,2.289-7.945,5.888
				c-2.6,10.282-4.516,29.942-7.151,37.599c-3.289,9.558-7.711,28.233-7.711,28.233l23.267,13.439
				C260.273,218.475,283.76,146.246,270.794,134.32z"/>
			<path style="fill:#407BFF;" d="M270.794,134.32c0,0-5.87-0.766-10.981-1.002c-3.708-0.171-7.034,2.289-7.945,5.888
				c-2.6,10.282-6.141,29.487-8.777,37.144c-3.289,9.558-10.273,25.807-10.273,25.807l29.339,13.768
				C262.158,215.924,283.76,146.246,270.794,134.32z"/>
			<path style="opacity:0.2;" d="M270.794,134.32c0,0-5.87-0.766-10.981-1.002c-3.708-0.171-7.034,2.289-7.945,5.888
				c-2.6,10.282-6.141,29.487-8.777,37.144c-3.289,9.558-10.273,25.807-10.273,25.807l29.339,13.768
				C262.158,215.924,283.76,146.246,270.794,134.32z"/>
		</g>
		<g>
			<path style="fill:#407BFF;" d="M286.304,140.589c0,0,4.361,2.103,8.223,4.483c3.242,1.998,4.805,5.928,3.768,9.592
				c-4.771,16.853-8.541,34.525-10.44,43.825c-2.022,9.904-4.097,18.915-4.097,18.915l-10.999,1.482
				C272.759,218.886,287.899,155.206,286.304,140.589z"/>
			<path style="opacity:0.2;" d="M286.304,140.589c0,0,4.361,2.103,8.223,4.483c3.242,1.998,4.805,5.928,3.768,9.592
				c-4.771,16.853-8.541,34.525-10.44,43.825c-2.022,9.904-4.097,18.915-4.097,18.915l-10.999,1.482
				C272.759,218.886,287.899,155.206,286.304,140.589z"/>
		</g>
		<path style="opacity:0.2;" d="M285.599,129.973c-0.48,0.772-0.924,1.568-1.286,2.359c-2.142-1.289-4.347-4.85-3.827-7.323
			c0.196-0.93,0.482-1.794,0.762-2.387L285.599,129.973z"/>
		<path style="fill:#263238;" d="M291.773,99.682c5.319,0.689,7.271,7.87,4.327,12.607
			C291.28,105.295,291.773,99.682,291.773,99.682z"/>
		<path style="fill:#FFB573;" d="M275.214,112.923c1.793,7.689,2.45,12.267,7.059,15.719c6.933,5.193,15.946,0.354,16.493-7.635
			c0.492-7.19-2.522-18.557-10.67-20.62C280.068,98.354,273.421,105.234,275.214,112.923z"/>
		<path style="fill:#263238;" d="M277.576,119.765c4.637,0.134,3.918-7.536,1.892-10.434c6.42,1.028,17.06-4.67,18.133-10.613
			c1.554-8.611-11.581-8.606-15.833-5.871c1.828,0.134,2.765,1.679,2.319,2.482c0,0-6.332-1.917-10.434,0.312
			c1.784,0.654,3.686,3.24-3.121,4.058c-6.485,0.779-4.519,7.298-1.249,7.179c-1.739,2.675-3.835,8.74,0.089,11.326
			c3.924,2.586,6.599,5.931,5.752,7.313C276.495,125.474,279.404,123.823,277.576,119.765z"/>
		<path style="fill:#263238;" d="M270.211,106.284c-3.099,0.297-4.883,2.715-5.002,6.005
			C266.696,109.286,270.211,106.284,270.211,106.284z"/>
		<path style="fill:#FFB573;" d="M273.359,119.869c0.839,1.709,2.355,2.902,3.799,3.423c2.173,0.784,3.309-1.128,2.747-3.275
			c-0.506-1.932-2.246-4.669-4.446-4.527C273.291,115.63,272.399,117.915,273.359,119.869z"/>
		<path style="fill:#263238;" d="M287.396,113.507c0.107,0.631,0.53,1.098,0.944,1.042c0.415-0.056,0.664-0.612,0.557-1.244
			c-0.107-0.631-0.53-1.098-0.944-1.042C287.538,112.319,287.289,112.876,287.396,113.507z"/>
		<path style="fill:#263238;" d="M294.565,112.546c0.107,0.631,0.53,1.098,0.944,1.043c0.415-0.056,0.664-0.612,0.557-1.244
			c-0.107-0.631-0.53-1.098-0.944-1.043C294.707,111.358,294.458,111.915,294.565,112.546z"/>
		<path style="fill:#ED893E;" d="M292.339,113.166c0,0,2.06,3.449,3.945,4.993c-0.945,1.193-2.934,0.972-2.934,0.972
			L292.339,113.166z"/>
		<path style="fill:#263238;" d="M291.048,121.179c-2.521,0.037-3.954-1.513-4.018-1.585c-0.07-0.077-0.064-0.196,0.013-0.265
			c0.077-0.07,0.195-0.063,0.265,0.013c0.016,0.018,1.646,1.785,4.434,1.409c0.104-0.015,0.197,0.058,0.211,0.161
			c0.014,0.103-0.058,0.197-0.162,0.211C291.534,121.157,291.286,121.175,291.048,121.179z"/>
		<path style="fill:#263238;" d="M289.052,123.256c-2.007-1.527-2.177-3.631-2.183-3.728c-0.007-0.103,0.071-0.193,0.174-0.2
			c0.104-0.008,0.193,0.071,0.2,0.174c0.002,0.024,0.193,2.42,2.619,3.845c0.091,0.053,0.119,0.168,0.066,0.257
			c-0.052,0.09-0.168,0.119-0.257,0.066C289.447,123.539,289.241,123.4,289.052,123.256z"/>
		<path style="fill:#263238;" d="M284.788,111.5c-0.062,0.001-0.124-0.013-0.182-0.044c-0.183-0.098-0.252-0.326-0.154-0.509
			c0.97-1.811,2.709-1.94,2.782-1.945c0.194-0.032,0.386,0.143,0.399,0.351c0.013,0.207-0.144,0.385-0.35,0.399
			c-0.072,0.006-1.406,0.128-2.168,1.55C285.047,111.427,284.92,111.498,284.788,111.5z"/>
		<path style="fill:#263238;" d="M297.231,109.679c-0.12,0.002-0.239-0.054-0.313-0.16c-0.984-1.398-2.382-1.402-2.396-1.402
			c-0.208,0.002-0.378-0.165-0.379-0.372c-0.002-0.207,0.164-0.376,0.37-0.379c0,0,0.002,0,0.002,0
			c0.074-0.001,1.81,0.004,3.017,1.721c0.12,0.17,0.079,0.404-0.091,0.523C297.377,109.656,297.304,109.678,297.231,109.679z"/>
		<g>
			<path style="fill:#407BFF;" d="M261.943,146.264c-1.978,1.63-4.115,3.433-6.126,5.21c-2.03,1.794-4.058,3.589-6.007,5.444
				c-3.894,3.703-7.682,7.507-10.842,11.463l-1.137,1.484l-0.143,0.186c0.003-0.005,0.06-0.092,0.081-0.138
				c0.047-0.114,0.119-0.228,0.148-0.354c0.093-0.232,0.119-0.476,0.128-0.63c0.003-0.335-0.062-0.339-0.053-0.174
				c0.006,0.167,0.1,0.503,0.254,0.883c0.308,0.772,0.858,1.731,1.507,2.686c0.648,0.962,1.409,1.943,2.216,2.916
				c1.612,1.96,3.41,3.916,5.303,5.803c1.869,1.888,3.886,3.799,5.803,5.549l0.121,0.111c1.833,1.672,1.962,4.514,0.29,6.346
				c-1.501,1.645-3.945,1.917-5.755,0.746c-5.008-3.233-9.555-6.682-13.99-10.952c-1.089-1.088-2.164-2.227-3.211-3.496
				c-1.045-1.273-2.073-2.644-3.016-4.381c-0.467-0.875-0.918-1.837-1.274-3.025c-0.347-1.184-0.624-2.599-0.465-4.33
				c0.073-0.854,0.286-1.777,0.62-2.666c0.184-0.439,0.374-0.887,0.616-1.293l0.354-0.586l0.163-0.242l1.305-1.935
				c3.558-5.016,7.432-9.438,11.523-13.585c2.04-2.079,4.1-4.117,6.236-6.068c2.155-1.968,4.238-3.853,6.591-5.777
				c2.974-2.432,7.356-1.993,9.788,0.981c2.432,2.974,1.993,7.356-0.981,9.788L261.943,146.264z"/>
			<path style="opacity:0.2;" d="M261.943,146.264c-1.978,1.63-4.115,3.433-6.126,5.21c-2.03,1.794-4.058,3.589-6.007,5.444
				c-3.894,3.703-7.682,7.507-10.842,11.463l-1.137,1.484l-0.143,0.186c0.003-0.005,0.06-0.092,0.081-0.138
				c0.047-0.114,0.119-0.228,0.148-0.354c0.093-0.232,0.119-0.476,0.128-0.63c0.003-0.335-0.062-0.339-0.053-0.174
				c0.006,0.167,0.1,0.503,0.254,0.883c0.308,0.772,0.858,1.731,1.507,2.686c0.648,0.962,1.409,1.943,2.216,2.916
				c1.612,1.96,3.41,3.916,5.303,5.803c1.869,1.888,3.886,3.799,5.803,5.549l0.121,0.111c1.833,1.672,1.962,4.514,0.29,6.346
				c-1.501,1.645-3.945,1.917-5.755,0.746c-5.008-3.233-9.555-6.682-13.99-10.952c-1.089-1.088-2.164-2.227-3.211-3.496
				c-1.045-1.273-2.073-2.644-3.016-4.381c-0.467-0.875-0.918-1.837-1.274-3.025c-0.347-1.184-0.624-2.599-0.465-4.33
				c0.073-0.854,0.286-1.777,0.62-2.666c0.184-0.439,0.374-0.887,0.616-1.293l0.354-0.586l0.163-0.242l1.305-1.935
				c3.558-5.016,7.432-9.438,11.523-13.585c2.04-2.079,4.1-4.117,6.236-6.068c2.155-1.968,4.238-3.853,6.591-5.777
				c2.974-2.432,7.356-1.993,9.788,0.981c2.432,2.974,1.993,7.356-0.981,9.788L261.943,146.264z"/>
		</g>
		<path style="fill:#FFB573;" d="M254.667,188.237l6.8,4.16l-8.691,4.95c0,0-5.777-4.315-3.305-7.109l2.901-1.951
			C253.062,187.823,253.958,187.803,254.667,188.237z"/>
		<path style="fill:#FFB573;" d="M261.84,199.947l-3.736,2.208c-1.094,0.646-2.505,0.264-3.123-0.846l-2.205-3.962l8.691-4.95
			l1.398,4.997C263.141,198.379,262.72,199.426,261.84,199.947z"/>
	</g>
</g>
<g id="Megaphone">
	<g>
		<g>
			<path style="fill:#407BFF;" d="M326.885,129.377l9.215-1.806c-2.529,4.459,1.186,8.726,4.526,11.406
				c1.596,1.281,0.473,3.568-1.971,4.047l-5.994,1.175C325.392,145.624,326.885,129.377,326.885,129.377z"/>
			<g>
				<path style="fill:#407BFF;" d="M323.234,130.093l21.111-4.138c6.853-1.343,11.361-8.049,10.018-14.903l0,0
					c-1.343-6.853-8.049-11.361-14.903-10.018l-21.111,4.138c-6.853,1.343-11.361,8.049-10.018,14.903l0,0
					C309.675,126.928,316.381,131.436,323.234,130.093z"/>
				<path style="opacity:0.3;fill:#FFFFFF;" d="M323.234,130.093l21.111-4.138c6.853-1.343,11.361-8.049,10.018-14.903l0,0
					c-1.343-6.853-8.049-11.361-14.903-10.018l-21.111,4.138c-6.853,1.343-11.361,8.049-10.018,14.903l0,0
					C309.675,126.928,316.381,131.436,323.234,130.093z"/>
			</g>
			<path style="fill:#407BFF;" d="M380.707,134.398l-35.984-0.479c-3.127,0.613-11.046-39.788-7.919-40.401l33.14-14.029
				L380.707,134.398z"/>
			<g>
				<path style="fill:#407BFF;" d="M372.447,107.507c2.972,15.163,6.67,27.202,8.26,26.89c1.589-0.312,0.469-12.856-2.504-28.019
					c-2.972-15.163-6.67-27.202-8.259-26.89C368.354,79.8,369.475,92.345,372.447,107.507z"/>
				<path style="opacity:0.3;" d="M372.447,107.507c2.972,15.163,6.67,27.202,8.26,26.89c1.589-0.312,0.469-12.856-2.504-28.019
					c-2.972-15.163-6.67-27.202-8.259-26.89C368.354,79.8,369.475,92.345,372.447,107.507z"/>
			</g>
			<path style="fill:#407BFF;" d="M385.975,105.636c-0.727-3.707-8.978-5.211-10.742-4.866c-1.764,0.346-2.606,3.632-1.879,7.339
				c0.727,3.707,2.746,6.433,4.511,6.087C379.629,113.851,386.702,109.344,385.975,105.636z"/>
		</g>
		
			<rect x="394.629" y="99.812" transform="matrix(0.9872 -0.1597 0.1597 0.9872 -10.6552 68.086)" style="fill:#407BFF;" width="47.449" height="1.07"/>
		
			<rect x="387.768" y="83.86" transform="matrix(0.761 -0.6488 0.6488 0.761 40.9442 279.9277)" style="fill:#407BFF;" width="25.236" height="1.07"/>
		
			<rect x="421.951" y="124.438" transform="matrix(0.3328 -0.943 0.943 0.3328 161.0138 483.9222)" style="fill:#407BFF;" width="1.071" height="7.474"/>
		
			<rect x="401.824" y="111.83" transform="matrix(0.318 -0.9481 0.9481 0.318 159.4866 464.16)" style="fill:#407BFF;" width="1.069" height="18.796"/>
	</g>
</g>
</svg>
